<svg width="13" height="8" viewBox="0 0 13 8" fill="none" xmlns="http://www.w3.org/2000/svg">
    <path d="M10.2036 3.28133L8.01127 1.23209C7.85742 1.08828 7.78358 0.920507 7.78973 0.728766C7.79589 0.537024 7.86973 0.369249 8.01127 0.225443C8.16512 0.081637 8.34768 0.00661811 8.55896 0.000386816C8.77024 -0.00584543 8.95306 0.063182 9.10742 0.207468L12.6267 3.49704C12.7805 3.64084 12.8574 3.80862 12.8574 4.00036C12.8574 4.1921 12.7805 4.35987 12.6267 4.50368L9.10742 7.79325C8.95358 7.93706 8.77076 8.00584 8.55896 7.99961C8.34717 7.99338 8.1646 7.9186 8.01127 7.77527C7.87024 7.63147 7.7964 7.46369 7.78973 7.27195C7.78306 7.08021 7.85691 6.91244 8.01127 6.76863L10.2036 4.71939L1.62665 4.71939C1.40871 4.71939 1.22589 4.65036 1.07819 4.51231C0.930502 4.37425 0.856912 4.2036 0.857424 4.00036C0.857937 3.79711 0.931783 3.62622 1.07896 3.48769C1.22614 3.34915 1.40871 3.28037 1.62666 3.28133L10.2036 3.28133Z" fill="white"/>
</svg>